<svg width="165" height="48" viewBox="0 0 165 48" fill="none" xmlns="http://www.w3.org/2000/svg">
<path d="M46.2188 38V10.5H54.5938L56.9062 27.2656L59.2031 10.5H67.6562V38H62.625V18.1875L59.4688 38H54.5312L51.1875 18.1875V38H46.2188ZM69.3438 38L72 10.5H81.3281L83.9375 38H78.7344L78.3438 33.5625H75.0312L74.6875 38H69.3438ZM75.4219 29.1719H77.9219L76.7188 15.1875H76.4688L75.4219 29.1719ZM91.2969 38.25C87.3698 38.25 85.4062 35.4375 85.4062 29.8125V17.9531C85.4062 12.8177 87.6562 10.25 92.1562 10.25C94.0104 10.25 95.4323 10.625 96.4219 11.375C97.4115 12.1146 98.0938 13.1979 98.4688 14.625C98.8438 16.0521 99.0312 17.7917 99.0312 19.8438H93.6562V17.4062C93.6562 16.8125 93.5729 16.3177 93.4062 15.9219C93.25 15.5156 92.9167 15.3125 92.4062 15.3125C91.7708 15.3125 91.349 15.526 91.1406 15.9531C90.9427 16.3802 90.8438 16.849 90.8438 17.3594V30.6875C90.8438 31.4271 90.9375 32.0312 91.125 32.5C91.3229 32.9583 91.7031 33.1875 92.2656 33.1875C92.849 33.1875 93.2344 32.9583 93.4219 32.5C93.6198 32.0312 93.7188 31.4167 93.7188 30.6562V26.7344H92.25V21.9844H98.9688V38H96.7656L95.8281 35.6875C94.8698 37.3958 93.3594 38.25 91.2969 38.25ZM101.156 38V10.5H112.156V15.8125H106.75V21.1719H111.938V26.3438H106.75V32.6406H112.516V38H101.156ZM120.75 38.25C118.76 38.25 117.156 37.6302 115.938 36.3906C114.729 35.151 114.125 33.4167 114.125 31.1875V18.5C114.125 15.8333 114.651 13.7917 115.703 12.375C116.766 10.9583 118.49 10.25 120.875 10.25C122.177 10.25 123.333 10.4896 124.344 10.9688C125.365 11.4479 126.167 12.1667 126.75 13.125C127.333 14.0729 127.625 15.2708 127.625 16.7188V21.4688H122.156V17.4062C122.156 16.5833 122.052 16.0312 121.844 15.75C121.635 15.4583 121.312 15.3125 120.875 15.3125C120.365 15.3125 120.021 15.5 119.844 15.875C119.667 16.2396 119.578 16.7292 119.578 17.3438V31.1094C119.578 31.8698 119.688 32.4062 119.906 32.7188C120.135 33.0312 120.458 33.1875 120.875 33.1875C121.344 33.1875 121.672 32.9948 121.859 32.6094C122.057 32.224 122.156 31.724 122.156 31.1094V26.1562H127.688V31.3594C127.688 33.776 127.078 35.5312 125.859 36.625C124.641 37.7083 122.938 38.25 120.75 38.25ZM129.281 38V10.5H134.594V38H129.281ZM136.781 38V10.5H142.438L144.969 23.6719V10.5H150.281V38H144.906L142.156 24.25V38H136.781ZM152.719 38V10.5H163.719V15.8125H158.312V21.1719H163.5V26.3438H158.312V32.6406H164.078V38H152.719Z" fill="#3CFFD0"/>
<ellipse cx="16.8664" cy="24.3584" rx="16.8664" ry="17.3584" fill="#3CFFD0"/>
<rect x="3.43164" y="23.7695" width="26.586" height="9.70893" rx="4.85447" fill="#1A1A18"/>
<ellipse cx="9.00555" cy="28.6244" rx="3.00164" ry="3.08921" fill="#E9E9E8"/>
<ellipse cx="9.00555" cy="17.7396" rx="3.00164" ry="3.08921" fill="#1A1A18"/>
<ellipse cx="17.0095" cy="28.6244" rx="3.00164" ry="3.08921" fill="#E9E9E8"/>
<ellipse cx="25.0134" cy="28.6244" rx="3.00164" ry="3.08921" fill="#E9E9E8"/>
<ellipse cx="25.0134" cy="17.7396" rx="3.00164" ry="3.08921" fill="#1A1A18"/>
<path d="M14.0078 36.1264V33.4785H18.2959L14.0078 36.1264Z" fill="black"/>
<rect x="-0.0911828" y="0.711051" width="18.8851" height="5.13378" rx="2.56689" transform="matrix(0.600357 0.799732 -0.782723 0.622371 9.95176 13.6403)" stroke="#CCFF3C"/>
<rect x="6.50391" y="31.2148" width="16.0642" height="5.00328" rx="2.50164" transform="rotate(-90 6.50391 31.2148)" stroke="#CCFF3C"/>
<rect x="22.5117" y="31.2148" width="16.0642" height="5.00328" rx="2.50164" transform="rotate(-90 22.5117 31.2148)" stroke="#CCFF3C"/>
<rect x="0.689957" y="-0.100939" width="4.99421" height="18.621" rx="2.4971" transform="matrix(0.793715 0.608289 0.586198 -0.810168 13.0648 28.6242)" stroke="#CCFF3C"/>
</svg>
