<svg width="150" height="29" viewBox="0 0 150 29" fill="none" xmlns="http://www.w3.org/2000/svg">
<path d="M0.21875 28V0.5H8.59375L10.9062 17.2656L13.2031 0.5H21.6562V28H16.625V8.1875L13.4688 28H8.53125L5.1875 8.1875V28H0.21875ZM23.3438 28L26 0.5H35.3281L37.9375 28H32.7344L32.3438 23.5625H29.0312L28.6875 28H23.3438ZM29.4219 19.1719H31.9219L30.7188 5.1875H30.4688L29.4219 19.1719ZM45.2969 28.25C41.3698 28.25 39.4062 25.4375 39.4062 19.8125V7.95312C39.4062 2.81771 41.6562 0.25 46.1562 0.25C48.0104 0.25 49.4323 0.625 50.4219 1.375C51.4115 2.11458 52.0938 3.19792 52.4688 4.625C52.8438 6.05208 53.0312 7.79167 53.0312 9.84375H47.6562V7.40625C47.6562 6.8125 47.5729 6.31771 47.4062 5.92188C47.25 5.51562 46.9167 5.3125 46.4062 5.3125C45.7708 5.3125 45.349 5.52604 45.1406 5.95312C44.9427 6.38021 44.8438 6.84896 44.8438 7.35938V20.6875C44.8438 21.4271 44.9375 22.0312 45.125 22.5C45.3229 22.9583 45.7031 23.1875 46.2656 23.1875C46.849 23.1875 47.2344 22.9583 47.4219 22.5C47.6198 22.0312 47.7188 21.4167 47.7188 20.6562V16.7344H46.25V11.9844H52.9688V28H50.7656L49.8281 25.6875C48.8698 27.3958 47.3594 28.25 45.2969 28.25ZM55.1562 28V0.5H66.1562V5.8125H60.75V11.1719H65.9375V16.3438H60.75V22.6406H66.5156V28H55.1562ZM75.8438 28V0.5H84.2188L86.5312 17.2656L88.8281 0.5H97.2812V28H92.25V8.1875L89.0938 28H84.1562L80.8125 8.1875V28H75.8438ZM99.7188 28V0.5H110.719V5.8125H105.312V11.1719H110.5V16.3438H105.312V22.6406H111.078V28H99.7188ZM112.906 28V0.5H120.469C122.448 0.5 123.938 1.05208 124.938 2.15625C125.938 3.25 126.438 4.85417 126.438 6.96875V19.8438C126.438 22.4479 125.979 24.4583 125.062 25.875C124.156 27.2917 122.562 28 120.281 28H112.906ZM118.438 23.1406H119.391C120.401 23.1406 120.906 22.651 120.906 21.6719V7.48438C120.906 6.56771 120.781 5.97917 120.531 5.71875C120.292 5.44792 119.797 5.3125 119.047 5.3125H118.438V23.1406ZM128.438 28V0.5H133.75V28H128.438ZM135.188 28L137.844 0.5H147.172L149.781 28H144.578L144.188 23.5625H140.875L140.531 28H135.188ZM141.266 19.1719H143.766L142.562 5.1875H142.312L141.266 19.1719Z" fill="#3CFFD0"/>
</svg>
